<svg xmlns="http://www.w3.org/2000/svg" version="1.1" xmlns:xlink="http://www.w3.org/1999/xlink" xmlns:svgjs="http://svgjs.dev/svgjs" width="1000" height="750" viewBox="0 0 1000 750"><rect width="1000" height="750" fill="#000000"></rect><g transform="matrix(0.834,0,0,0.834,82.49454545454546,115.4193570850203)"><svg viewBox="0 0 396 247" data-background-color="#ffffff" preserveAspectRatio="xMidYMid meet" height="623" width="1000" xmlns="http://www.w3.org/2000/svg" xmlns:xlink="http://www.w3.org/1999/xlink"><g id="tight-bounds" transform="matrix(1,0,0,1,0.2400000000000091,-0.09999999999999432)"><svg viewBox="0 0 395.52 247.2" height="247.2" width="395.52"><g><svg></svg></g><g><svg viewBox="0 0 395.52 247.2" height="247.2" width="395.52"><mask id="6d77c7ba-cd0e-40cf-a3dd-ba9304506f82"><rect width="640" height="400" fill="white"></rect><g transform="matrix(1,0,0,1,110.54628002680485,37.08)"><svg viewBox="0 0 174.42743994639028 173.04" height="173.04" width="174.42743994639028"><g><svg viewBox="0 0 174.42743994639028 173.04" height="173.04" width="174.42743994639028"><g><svg viewBox="0 0 244.56815881348314 242.62280186014345" height="173.04" width="174.42743994639028"><g><svg viewBox="0 0 244.56815881348314 242.62280186014345" height="242.62280186014345" width="244.56815881348314"><g id="SvgjsG1328"><svg viewBox="0 0 244.56815881348314 242.62280186014345" height="242.62280186014345" width="244.56815881348314" id="SvgjsSvg1327"><g><svg viewBox="0 0 244.56815881348314 171.9706128" height="171.9706128" width="244.56815881348314"><g transform="matrix(1,0,0,1,0,0)"><svg width="244.56815881348314" viewBox="-14.300000190734863 -38.599998474121094 89.59000396728516 63.29999923706055" height="171.9706128" data-palette-color="#8d021f"><path d="M23.5-34.4L23.5-34.4Q39.5-34.4 40.2-34.5 40.9-34.6 41.38-34.6 41.85-34.6 41.85-34.4 41.85-34.2 41.33-33.77 40.8-33.35 39.53-32.93 38.25-32.5 36.65-32.5L36.65-32.5 21.9-32.55Q15.45-32.45 9.58-30.8 3.7-29.15-0.05-26.85-3.8-24.55-6-22.15-8.2-19.75-8.2-18.05L-8.2-18.05Q-8.2-16-5.15-16-2.1-16 2.78-18.63 7.65-21.25 11.05-24.9L11.05-24.9Q11.6-25.45 11.8-25.45L11.8-25.45Q11.9-25.45 11.9-25.3 11.9-25.15 11.85-25.05L11.85-25.05Q10.4-21.65 5-17.88-0.4-14.1-5.35-14.1-10.3-14.1-10.3-16.95L-10.3-16.95Q-10.3-19.1-7.5-22.05-4.7-25-0.25-27.78 4.2-30.55 10.63-32.48 17.05-34.4 23.5-34.4ZM21-30.95L21.25-30.75Q21.25-30.6 17.75-24.1L17.75-24.1Q8.2-6.35 4.65 0.4L4.65 0.4Q4.35 1.05 3.55 1.4 2.75 1.75 2.33 1.75 1.9 1.75 1.9 1.53 1.9 1.3 6.15-6.5 10.4-14.3 14.63-22.03 18.85-29.75 18.75-29.8L18.75-29.8Q19.05-30.3 19.75-30.55L19.75-30.55 21-30.95ZM13.6-3.35L13.6-3.35Q13.4-3.25 13.22-3.25 13.05-3.25 13.05-3.45 13.05-3.65 13.2-3.8L13.2-3.8Q15.25-4.95 17.7-7.55L17.7-7.55Q15.45-8.25 15.45-9.53 15.45-10.8 17.15-12.38 18.85-13.95 20.35-13.95L20.35-13.95Q21.35-13.95 21.35-12.75L21.35-12.75Q21.35-10.9 19.5-8.8L19.5-8.8Q21.9-8.4 21.9-7.65L21.9-7.65Q21.9-6.65 21.02-6.13 20.15-5.6 19-4.25 17.85-2.9 17.85-1.55L17.85-1.55Q17.85-1.25 18.05-1 18.25-0.75 18.9-0.75 19.55-0.75 21.65-1.73 23.75-2.7 25.35-3.7L25.35-3.7 26.95-4.7Q27-4.6 27-4.3 27-4 26.55-3.8L26.55-3.8Q19.8 0.8 17.15 0.8L17.15 0.8Q15.85 0.8 15.85-0.5L15.85-0.5Q15.85-1.55 16.57-2.7 17.3-3.85 18.17-4.6 19.05-5.35 19.77-6.03 20.5-6.7 20.5-6.9 20.5-7.1 19.87-7.15 19.25-7.2 18.25-7.4L18.25-7.4Q15.5-4.45 13.6-3.35ZM16.7-10.3L16.7-10.3Q16.7-9.3 18.9-8.9L18.9-8.9Q20.2-10.5 20.2-11.68 20.2-12.85 19.45-12.85 18.7-12.85 17.7-11.98 16.7-11.1 16.7-10.3ZM34.45-15.25L34.45-15.25Q35.2-15.25 35.2-14.5 35.2-13.75 34.5-12.98 33.8-12.2 32.95-12.2L32.95-12.2Q32.25-12.2 32.25-13.18 32.25-14.15 33.05-14.7 33.84-15.25 34.45-15.25ZM29.75-8.65L29.75-8.65Q30-9.05 30.45-9.05 30.9-9.05 31.35-8.6L31.35-8.6Q31.35-8.4 30.7-7.7 30.05-7 28.5-4.58 26.95-2.15 26.95-1.35L26.95-1.35Q26.95-0.85 27.7-0.75L27.7-0.75Q28.7-0.75 30.8-1.73 32.9-2.7 34.5-3.7L34.5-3.7 36.09-4.7Q36.15-4.6 36.15-4.3 36.15-4 35.7-3.8L35.7-3.8Q28.95 0.8 26.3 0.8L26.3 0.8Q25 0.8 25-0.5 25-1.8 26.42-4.13 27.85-6.45 29.75-8.65ZM40.59-8L40.59-8Q43.89-9.85 46.22-9.85 48.54-9.85 48.54-7.9L48.54-7.9Q48.54-5.25 45.22-2.38 41.89 0.5 38.59 0.5L38.59 0.5Q38.29 0.5 37.84 0.2 37.39-0.1 37.39-0.8 37.39-1.5 38.52-2.45 39.64-3.4 39.87-3.4 40.09-3.4 40.32-3.33 40.54-3.25 40.77-3.05 40.99-2.85 40.99-2.7 40.99-2.55 40.74-2.3L40.74-2.3Q40.24-1.95 39.67-1.38 39.09-0.8 39.09-0.58 39.09-0.35 39.59-0.35 40.09-0.35 41.69-1.07 43.29-1.8 44.89-3.48 46.49-5.15 46.49-7.15L46.49-7.15Q46.49-8.4 45.04-8.4L45.04-8.4Q42.84-8.4 39.84-6.7L39.84-6.7Q35.54 0.5 34.44 2.5L34.44 2.5Q30.09 10.5 26.69 14.98 23.29 19.45 20.59 19.45L20.59 19.45Q19.69 19.45 19.69 18.35L19.69 18.35Q19.69 13.95 25.52 6.23 31.34-1.5 37.89-6.25L37.89-6.25Q42.94-14.6 43.99-16.7L43.99-16.7Q43.44-16.05 42.14-15.15L42.14-15.15 39.29-13.2Q38.99-13.1 38.74-13.1 38.49-13.1 38.44-13.35L38.44-13.35Q43.14-16.3 45.39-18.75L45.39-18.75Q45.94-19.35 45.99-19.5L45.99-19.5Q46.14-19.65 46.69-19.6 47.24-19.55 47.24-19.1L47.24-19.1Q47.24-18.9 46.52-17.73 45.79-16.55 40.59-8ZM32.99 2.1L32.99 2.1 37.04-4.8Q31.29-0.45 26.19 6.83 21.09 14.1 21.09 17.55L21.09 17.55Q21.09 18 21.39 18L21.39 18Q24.54 18 32.99 2.1ZM51.74-5.45L51.74-5.45Q49.34-3.25 48.69-3.25L48.69-3.25Q48.49-3.25 48.49-3.45 48.49-3.65 48.64-3.8L48.64-3.8Q49.84-4.45 51.44-5.9L51.44-5.9Q51.19-6.5 51.19-7.2L51.19-7.2Q51.19-8.9 52.94-10.45 54.69-12 55.89-12L55.89-12Q56.54-12 56.54-11.38 56.54-10.75 54.54-8.35L54.54-8.35Q54.34-8.1 54.09-7.85 53.84-7.6 53.57-7.28 53.29-6.95 53.14-6.8L53.14-6.8Q53.39-6.55 54.04-5.93 54.69-5.3 55.09-4.9L55.09-4.9Q56.19-3.8 56.19-2.15 56.19-0.5 54.14 0.73 52.09 1.95 49.87 1.95 47.64 1.95 47.64 0.63 47.64-0.7 49.69-1.8 51.74-2.9 53.99-3.3L53.99-3.3Q53.69-3.7 52.87-4.35 52.04-5 51.74-5.45ZM54.34-2.7Q52.64-2.5 51.14-1.78 49.64-1.05 49.64-0.08 49.64 0.9 51.02 0.9 52.39 0.9 53.47 0.25 54.54-0.4 54.54-1.2 54.54-2 54.34-2.7L54.34-2.7ZM52.79-7.2L52.79-7.2 54.09-8.6Q55.39-10.15 55.39-10.48 55.39-10.8 55.09-10.8L55.09-10.8Q54.24-10.8 53.34-9.98 52.44-9.15 52.44-8.38 52.44-7.6 52.79-7.2ZM71.29-9.35Q71.29-9.3 70.16-7.58 69.04-5.85 68.41-4.95 67.79-4.05 63.19 3.45L63.19 3.45Q63.59 3.4 64.49 3.4L64.49 3.4Q66.89 3.4 66.89 4.65L66.89 4.65Q66.89 5.35 65.99 6.3 65.09 7.25 64.59 7.25 64.09 7.25 64.09 6.9L64.09 6.9Q64.09 6.7 64.64 6.28 65.19 5.85 65.19 5.28 65.19 4.7 64.21 4.7 63.24 4.7 62.34 4.85L62.34 4.85Q57.79 12.3 54.49 16.5 51.19 20.7 48.84 20.7L48.84 20.7Q47.14 20.7 47.14 18.95L47.14 18.95Q47.14 15.95 51.66 10.63 56.19 5.3 61.49 3.8L61.49 3.8 66.29-4.5Q64.19-2.6 61.96-1.15 59.74 0.3 58.59 0.3 57.44 0.3 57.44-0.75L57.44-0.75Q57.44-2.35 62.69-9.6L62.69-9.6Q62.94-10 63.34-10L63.34-10Q64.49-9.65 64.49-9.5 64.49-9.35 64.19-8.9L64.19-8.9Q59.69-2.8 59.69-1.85L59.69-1.85Q59.69-1.25 60.36-1.25 61.04-1.25 63.16-2.85 65.29-4.45 66.79-6.1L66.79-6.1 69.59-9.5Q69.89-9.85 70.34-9.85L70.34-9.85Q71.29-9.7 71.29-9.35L71.29-9.35ZM51.99 11.68Q50.54 13.65 49.69 15.43 48.84 17.2 48.84 18.23 48.84 19.25 49.64 19.25L49.64 19.25Q52.14 19.25 60.59 5.25L60.59 5.25Q58.09 6.05 55.76 7.88 53.44 9.7 51.99 11.68Z" opacity="1" transform="matrix(1,0,0,1,0,0)" fill="black" class="wordmark-text-0" id="SvgjsPath1326" stroke-width="7" stroke="black" stroke-linejoin="round"></path></svg></g></svg></g><g transform="matrix(1,0,0,1,3.5,208.00715905396012)"><svg viewBox="0 0 237.56815881348314 34.615642806183324" height="34.615642806183324" width="237.56815881348314"><g transform="matrix(1,0,0,1,0,0)"><svg width="237.56815881348314" viewBox="-1.1500000953674316 -41.099998474121094 309.1199951171875 45.89999771118164" height="34.615642806183324" data-palette-color="#8d021f"><path d="M25.6 0.8Q24.35 0.8 22.93-0.48 21.5-1.75 20.3-3.95L20.3-3.95 14.95-13.65 10.8-13.65 10.65-6.2Q10.65-4.3 10.9-3.48 11.15-2.65 11.85-2.38 12.55-2.1 14.25-2.1L14.25-2.1 14.35-1.9 13.9 0.2Q13.3 0.15 11.5 0.1 9.7 0.05 7.75 0.05L7.75 0.05Q6 0.05 4.65 0.1 3.3 0.15 2.85 0.2L2.85 0.2 3.3-2.05Q4.9-2.25 5.7-2.6 6.5-2.95 6.8-3.73 7.1-4.5 7.1-6L7.1-6 7.15-27Q7.15-28.6 6.78-29.15 6.4-29.7 5.3-29.7L5.3-29.7Q4.8-29.7 4.3-29.65 3.8-29.6 3.6-29.6L3.6-29.6 3.5-29.8 3.85-32Q4.45-31.95 6.1-31.9 7.75-31.85 9.4-31.85L9.4-31.85Q11.1-31.85 12.98-31.93 14.85-32 15.55-32.05L15.55-32.05Q20.2-32.05 22.9-29.95 25.6-27.85 25.6-24.2L25.6-24.2Q25.6-21.2 23.68-18.7 21.75-16.2 18.25-14.6L18.25-14.6 23.75-5.9Q25.2-3.5 26.58-2.58 27.95-1.65 29.95-1.65L29.95-1.65 30.15-1.45 29.85 0.25 25.6 0.8ZM16.05-15.95Q16.05-15.8 17.55-16.6 19.05-17.4 20.25-19.05 21.45-20.7 21.45-23.3L21.45-23.3Q21.45-29.9 12.3-29.9L12.3-29.9Q11.8-29.9 11.63-29.68 11.45-29.45 11.4-28.75L11.4-28.75Q10.95-21.1 10.9-16.45L10.9-16.45 16.05-15.95ZM40.55 0.6Q37.7 0.6 35.5-0.8 33.3-2.2 32.07-4.73 30.85-7.25 30.85-10.5L30.85-10.5Q30.85-14 32.37-16.93 33.9-19.85 36.55-21.53 39.2-23.2 42.45-23.2L42.45-23.2Q45.25-23.2 47.47-21.8 49.7-20.4 50.92-17.88 52.15-15.35 52.15-12.1L52.15-12.1Q52.15-8.6 50.62-5.68 49.1-2.75 46.45-1.07 43.8 0.6 40.55 0.6L40.55 0.6ZM41.95-1.85Q44.75-1.85 46.4-4.13 48.05-6.4 48.05-10.3L48.05-10.3Q48.05-13.25 47.15-15.58 46.25-17.9 44.62-19.2 43-20.5 40.95-20.5L40.95-20.5Q38.15-20.5 36.5-18.2 34.85-15.9 34.85-11.95L34.85-11.95Q34.85-9 35.75-6.7 36.65-4.4 38.25-3.13 39.85-1.85 41.95-1.85L41.95-1.85ZM72.55 0.6Q68.5 0.6 68.1-3.45L68.1-3.45 67.9-3.5Q66.1-1.7 64.62-0.65 63.15 0.4 62.4 0.4L62.4 0.4Q59.6 0.4 57.8-1.35 56-3.1 56-5.8L56-5.8Q56-7.25 56.72-8.35 57.45-9.45 58.65-9.8L58.65-9.8 68.15-12.4 68.2-14.6Q68.2-17.1 67.05-18.5 65.9-19.9 63.8-19.9L63.8-19.9Q62.4-19.9 60.85-19.25 59.3-18.6 57.8-17.4L57.8-17.4 57.55-17.55 56.95-19.7Q59.3-21.05 61.67-22.13 64.05-23.2 65.1-23.2L65.1-23.2Q68.35-23.2 70.2-21.5 72.05-19.8 72.05-16.75L72.05-16.75Q72.05-15.65 71.7-12.25L71.7-12.25Q71.15-6.75 71.15-5.25L71.15-5.25Q71.15-4.15 71.7-3.55 72.25-2.95 73.2-2.95L73.2-2.95Q74-2.95 74.85-3.33 75.7-3.7 76.2-4.2L76.2-4.2 76.9-3.4Q76.15-2.15 74.97-0.98 73.8 0.2 72.55 0.6L72.55 0.6ZM63.25-3Q64.2-3 65.47-3.68 66.75-4.35 67.8-5.4L67.8-5.4 68.05-10.5 61.25-8.45Q59.8-8 59.8-6.35L59.8-6.35Q59.8-4.9 60.77-3.95 61.75-3 63.25-3L63.25-3ZM80.19-1.8Q81.69-1.95 82.19-2.78 82.69-3.6 82.69-5.95L82.69-5.95 82.69-16.95Q82.69-18.6 82.24-19.3 81.79-20 80.79-20L80.79-20Q80.39-20 80.12-19.95 79.84-19.9 79.74-19.85L79.74-19.85 79.49-20.2 79.64-21.75Q81.54-22.1 83.67-22.6 85.79-23.1 86.39-23.25L86.39-23.25 86.74-22.95Q86.64-22.5 86.44-20.88 86.24-19.25 86.29-17.8L86.29-17.8 86.49-17.65Q87.99-20 90.02-21.5 92.04-23 93.54-23L93.54-23Q94.24-23 94.62-22.93 94.99-22.85 95.09-22.8L95.09-22.8 95.24-22.6Q95.14-21.9 94.82-19.63 94.49-17.35 94.44-15.45L94.44-15.45 92.49-15.3Q92.49-17.35 92.22-18.03 91.94-18.7 91.14-18.7L91.14-18.7Q90.04-18.7 88.79-17.78 87.54-16.85 86.49-15.3L86.49-15.3Q86.44-13.85 86.29-10.5 86.14-7.15 86.09-5.1L86.09-5.1Q86.09-3.4 86.59-2.8 87.09-2.2 88.49-2.2L88.49-2.2Q89.14-2.2 89.79-2.25 90.44-2.3 90.69-2.3L90.69-2.3 90.74-2.1 90.29 0.1Q89.79 0.1 88.29 0.05 86.79 0 85.19 0L85.19 0Q83.34 0 81.84 0.08 80.34 0.15 79.94 0.2L79.94 0.2 80.19-1.8ZM109.09 0.6L109.39-1.7Q111.74-2.15 112.56-3.03 113.39-3.9 113.39-6L113.39-6 113.44-27Q113.44-28.6 113.06-29.15 112.69-29.7 111.59-29.7L111.59-29.7 109.49-29.6 109.39-29.8 109.74-32Q110.54-32 110.99-31.95L110.99-31.95 115.69-31.85Q117.94-31.85 121.44-32.3L121.44-32.3 121.24-30.05Q119.19-29.8 118.46-29.23 117.74-28.65 117.64-27.2L117.64-27.2Q117.34-21.35 117.14-14.98 116.94-8.6 116.94-5.6L116.94-5.6Q116.94-3.55 117.39-2.88 117.84-2.2 119.14-2.2L119.14-2.2Q119.99-2.2 121.79-2.35L121.79-2.35 121.89-2.15 121.44 0.15Q120.74 0.15 120.34 0.1L120.34 0.1Q116.84 0 114.89 0L114.89 0Q112.44 0 109.09 0.6L109.09 0.6ZM140.19-1.45Q141.69-1.85 142.34-2.63 142.99-3.4 142.99-4.7L142.99-4.7 143.19-14.6Q143.19-17.1 142.11-18.45 141.04-19.8 139.04-19.8L139.04-19.8Q137.44-19.8 135.79-18.98 134.14-18.15 132.89-17.2L132.89-17.2Q132.44-6.85 132.44-4.9L132.44-4.9Q132.44-3.35 132.84-2.73 133.24-2.1 134.24-2.1L134.24-2.1Q134.79-2.1 135.29-2.15 135.79-2.2 135.99-2.2L135.99-2.2 136.09-2 135.64 0.15Q135.19 0.1 133.89 0.05 132.59 0 131.09 0L131.09 0Q129.79 0 128.21 0.13 126.64 0.25 126.14 0.3L126.14 0.3 126.39-1.75Q127.84-2 128.44-2.65 129.04-3.3 129.04-4.7L129.04-4.7 129.04-16.9Q129.04-18.6 128.49-19.28 127.94-19.95 126.59-19.95L126.59-19.95 126.04-19.95 125.89-20.15 126.04-21.8Q128.19-22.15 130.31-22.63 132.44-23.1 133.04-23.25L133.04-23.25 133.34-22.85Q133.24-22.55 133.04-21.58 132.84-20.6 132.79-19.55L132.79-19.55 132.89-19.4Q138.59-23.2 140.24-23.2L140.24-23.2Q143.39-23.2 145.24-21.45 147.09-19.7 147.09-16.75L147.09-16.75Q147.09-16.25 146.79-12.15L146.79-12.15Q146.39-6.95 146.39-4.9L146.39-4.9Q146.39-3.45 146.79-2.78 147.19-2.1 148.14-2.1L148.14-2.1Q148.69-2.1 149.19-2.15 149.69-2.2 149.89-2.2L149.89-2.2 149.99-2 149.59 0.15Q149.14 0.1 147.89 0.05 146.64 0 145.14 0L145.14 0Q143.84 0 142.16 0.25 140.49 0.5 139.99 0.6L139.99 0.6 140.19-1.45ZM172.08 0.6Q169.98 0.6 168.23 0.23 166.48-0.15 165.36-0.6 164.23-1.05 164.23-1.1L164.23-1.1 163.98-1.6Q164.03-1.9 164.18-3.1 164.33-4.3 164.46-6.23 164.58-8.15 164.58-10.3L164.58-10.3 166.83-10.55Q166.83-6.8 167.33-5 167.83-3.2 169.18-2.53 170.53-1.85 173.33-1.85L173.33-1.85Q176.48-1.85 178.38-3.33 180.28-4.8 180.28-7.35L180.28-7.35Q180.28-8.85 179.26-10.05 178.23-11.25 176.83-12.1 175.43-12.95 172.68-14.4L172.68-14.4Q170.08-15.75 168.43-16.88 166.78-18 165.66-19.55 164.53-21.1 164.53-23.15L164.53-23.15Q164.53-25.75 166.06-27.88 167.58-30 170.21-31.23 172.83-32.45 176.03-32.45L176.03-32.45Q178.03-32.45 179.73-32.18 181.43-31.9 182.43-31.6 183.43-31.3 183.68-31.2L183.68-31.2 183.83-30.9Q183.78-30.6 183.58-29.5 183.38-28.4 183.13-26.45 182.88-24.5 182.73-22.45L182.73-22.45 180.78-22.25 180.48-22.5Q180.53-22.7 180.58-23.43 180.63-24.15 180.63-25.1L180.63-25.1Q180.63-27.75 179.33-28.75 178.03-29.75 174.68-29.75L174.68-29.75Q171.93-29.75 170.16-28.38 168.38-27 168.38-24.95L168.38-24.95Q168.38-22.95 170.11-21.48 171.83-20 175.18-18.25L175.18-18.25Q178.43-16.6 180.13-15.53 181.83-14.45 183.13-12.85 184.43-11.25 184.43-9.15L184.43-9.15Q184.43-6.35 182.86-4.13 181.28-1.9 178.48-0.65 175.68 0.6 172.08 0.6L172.08 0.6ZM189.33 0.6L189.53-1.45Q191.03-1.85 191.68-2.63 192.33-3.4 192.33-4.7L192.33-4.7 192.33-17.4Q192.33-20.1 190.48-20.1L190.48-20.1Q190.13-20.1 189.73-20.03 189.33-19.95 189.23-19.9L189.23-19.9 189.43-21.75Q191.53-22.05 193.75-22.55 195.98-23.05 196.63-23.2L196.63-23.2 196.88-22.6Q196.43-21.55 196.08-16.18 195.73-10.8 195.73-4.9L195.73-4.9Q195.73-3.45 196.13-2.78 196.53-2.1 197.48-2.1L197.48-2.1Q198.03-2.1 198.53-2.15 199.03-2.2 199.23-2.2L199.23-2.2 199.33-2 198.93 0.15Q198.48 0.1 197.23 0.05 195.98 0 194.48 0L194.48 0Q193.18 0 191.5 0.25 189.83 0.5 189.33 0.6L189.33 0.6ZM193.73-29.1Q192.58-29.1 191.93-29.85 191.28-30.6 191.28-31.65L191.28-31.65Q191.28-32.85 192.13-33.73 192.98-34.6 194.23-34.6L194.23-34.6Q195.38-34.6 196.03-33.85 196.68-33.1 196.68-32.05L196.68-32.05Q196.68-30.85 195.83-29.98 194.98-29.1 193.73-29.1L193.73-29.1ZM202.58 0.6L202.78-1.45Q204.18-1.85 204.75-2.45 205.33-3.05 205.45-3.9 205.58-4.75 205.58-6.75L205.58-6.75 205.58-31.3Q205.58-32.85 205.23-33.4 204.88-33.95 203.78-33.95L203.78-33.95Q203.53-33.95 202.63-33.85L202.63-33.85 202.48-33.95 202.68-35.65Q206.88-36.25 210.08-37.1L210.08-37.1 210.38-36.45Q209.83-35.6 209.4-25.75 208.98-15.9 208.98-4.9L208.98-4.9Q208.98-3.4 209.38-2.75 209.78-2.1 210.73-2.1L210.73-2.1 212.48-2.2 212.58-2 212.18 0.15Q208.88 0 207.73 0L207.73 0Q206.03 0 202.58 0.6L202.58 0.6ZM225.72 0.6Q222.62 0.6 220.22-0.78 217.82-2.15 216.52-4.67 215.22-7.2 215.22-10.45L215.22-10.45Q215.22-13.8 216.75-16.75 218.27-19.7 220.82-21.45 223.37-23.2 226.27-23.2L226.27-23.2Q229.92-23.2 231.82-21.35 233.72-19.5 233.72-15.95L233.72-15.95Q233.72-14.5 233.42-13.5L233.42-13.5 232.77-12.9 218.97-12.9Q218.92-8.05 220.9-5.43 222.87-2.8 226.42-2.8L226.42-2.8Q229.22-2.8 232.52-4.35L232.52-4.35 232.82-4.25 233.37-2.8Q231.57-1.5 229.4-0.45 227.22 0.6 225.72 0.6L225.72 0.6ZM219.17-14.75L228.22-15.2Q228.97-15.3 229.22-15.55 229.47-15.8 229.47-16.55L229.47-16.55Q229.47-18.55 228.4-19.6 227.32-20.65 225.32-20.65L225.32-20.65Q222.97-20.65 221.3-19.05 219.62-17.45 219.17-14.75L219.17-14.75ZM252.17-1.45Q253.67-1.85 254.32-2.63 254.97-3.4 254.97-4.7L254.97-4.7 255.17-14.6Q255.17-17.1 254.1-18.45 253.02-19.8 251.02-19.8L251.02-19.8Q249.42-19.8 247.77-18.98 246.12-18.15 244.87-17.2L244.87-17.2Q244.42-6.85 244.42-4.9L244.42-4.9Q244.42-3.35 244.82-2.73 245.22-2.1 246.22-2.1L246.22-2.1Q246.77-2.1 247.27-2.15 247.77-2.2 247.97-2.2L247.97-2.2 248.07-2 247.62 0.15Q247.17 0.1 245.87 0.05 244.57 0 243.07 0L243.07 0Q241.77 0 240.2 0.13 238.62 0.25 238.12 0.3L238.12 0.3 238.37-1.75Q239.82-2 240.42-2.65 241.02-3.3 241.02-4.7L241.02-4.7 241.02-16.9Q241.02-18.6 240.47-19.28 239.92-19.95 238.57-19.95L238.57-19.95 238.02-19.95 237.87-20.15 238.02-21.8Q240.17-22.15 242.3-22.63 244.42-23.1 245.02-23.25L245.02-23.25 245.32-22.85Q245.22-22.55 245.02-21.58 244.82-20.6 244.77-19.55L244.77-19.55 244.87-19.4Q250.57-23.2 252.22-23.2L252.22-23.2Q255.37-23.2 257.22-21.45 259.07-19.7 259.07-16.75L259.07-16.75Q259.07-16.25 258.77-12.15L258.77-12.15Q258.37-6.95 258.37-4.9L258.37-4.9Q258.37-3.45 258.77-2.78 259.17-2.1 260.12-2.1L260.12-2.1Q260.67-2.1 261.17-2.15 261.67-2.2 261.87-2.2L261.87-2.2 261.97-2 261.57 0.15Q261.12 0.1 259.87 0.05 258.62 0 257.12 0L257.12 0Q255.82 0 254.15 0.25 252.47 0.5 251.97 0.6L251.97 0.6 252.17-1.45ZM275.47 0.6Q270.72 0.6 267.87-2.4 265.02-5.4 265.02-10.45L265.02-10.45Q265.02-14 266.54-16.93 268.07-19.85 270.69-21.53 273.32-23.2 276.57-23.2L276.57-23.2Q277.97-23.2 279.27-23 280.57-22.8 281.39-22.58 282.22-22.35 282.42-22.25L282.42-22.25 282.57-21.9Q282.52-21.65 282.29-20.73 282.07-19.8 281.82-18.28 281.57-16.75 281.52-15L281.52-15 279.47-14.85 279.47-16.4Q279.47-18.25 278.34-19.38 277.22-20.5 275.37-20.5L275.37-20.5Q272.32-20.5 270.67-18.32 269.02-16.15 269.02-12.15L269.02-12.15Q269.02-7.8 270.84-5.28 272.67-2.75 275.82-2.75L275.82-2.75Q277.07-2.75 278.32-3.13 279.57-3.5 280.42-3.88 281.27-4.25 281.47-4.4L281.47-4.4 281.77-4.3 282.32-2.75Q281.97-2.5 280.79-1.7 279.62-0.9 278.09-0.15 276.57 0.6 275.47 0.6L275.47 0.6ZM295.97 0.6Q292.87 0.6 290.47-0.78 288.06-2.15 286.77-4.67 285.47-7.2 285.47-10.45L285.47-10.45Q285.47-13.8 286.99-16.75 288.52-19.7 291.06-21.45 293.62-23.2 296.52-23.2L296.52-23.2Q300.17-23.2 302.06-21.35 303.97-19.5 303.97-15.95L303.97-15.95Q303.97-14.5 303.67-13.5L303.67-13.5 303.02-12.9 289.22-12.9Q289.17-8.05 291.14-5.43 293.12-2.8 296.67-2.8L296.67-2.8Q299.47-2.8 302.77-4.35L302.77-4.35 303.06-4.25 303.62-2.8Q301.81-1.5 299.64-0.45 297.47 0.6 295.97 0.6L295.97 0.6ZM289.42-14.75L298.47-15.2Q299.22-15.3 299.47-15.55 299.72-15.8 299.72-16.55L299.72-16.55Q299.72-18.55 298.64-19.6 297.56-20.65 295.56-20.65L295.56-20.65Q293.22-20.65 291.54-19.05 289.87-17.45 289.42-14.75L289.42-14.75Z" opacity="1" transform="matrix(1,0,0,1,0,0)" fill="black" class="slogan-text-1" id="SvgjsPath1325" stroke-width="7" stroke="black" stroke-linejoin="round"></path></svg></g></svg></g></svg></g></svg></g><g></g></svg></g></svg></g></svg></g></mask><g transform="matrix(1,0,0,1,110.54628002680485,37.08)"><svg viewBox="0 0 174.42743994639028 173.04" height="173.04" width="174.42743994639028"><g><svg viewBox="0 0 174.42743994639028 173.04" height="173.04" width="174.42743994639028"><g><svg viewBox="0 0 244.56815881348314 242.62280186014345" height="173.04" width="174.42743994639028"><g><svg viewBox="0 0 244.56815881348314 242.62280186014345" height="242.62280186014345" width="244.56815881348314"><g id="textblocktransform"><svg viewBox="0 0 244.56815881348314 242.62280186014345" height="242.62280186014345" width="244.56815881348314" id="textblock"><g><svg viewBox="0 0 244.56815881348314 171.9706128" height="171.9706128" width="244.56815881348314"><g transform="matrix(1,0,0,1,0,0)"><svg width="244.56815881348314" viewBox="-14.300000190734863 -38.599998474121094 89.59000396728516 63.29999923706055" height="171.9706128" data-palette-color="#8d021f"><path d="M23.5-34.4L23.5-34.4Q39.5-34.4 40.2-34.5 40.9-34.6 41.38-34.6 41.85-34.6 41.85-34.4 41.85-34.2 41.33-33.77 40.8-33.35 39.53-32.93 38.25-32.5 36.65-32.5L36.65-32.5 21.9-32.55Q15.45-32.45 9.58-30.8 3.7-29.15-0.05-26.85-3.8-24.55-6-22.15-8.2-19.75-8.2-18.05L-8.2-18.05Q-8.2-16-5.15-16-2.1-16 2.78-18.63 7.65-21.25 11.05-24.9L11.05-24.9Q11.6-25.45 11.8-25.45L11.8-25.45Q11.9-25.45 11.9-25.3 11.9-25.15 11.85-25.05L11.85-25.05Q10.4-21.65 5-17.88-0.4-14.1-5.35-14.1-10.3-14.1-10.3-16.95L-10.3-16.95Q-10.3-19.1-7.5-22.05-4.7-25-0.25-27.78 4.2-30.55 10.63-32.48 17.05-34.4 23.5-34.4ZM21-30.95L21.25-30.75Q21.25-30.6 17.75-24.1L17.75-24.1Q8.2-6.35 4.65 0.4L4.65 0.4Q4.35 1.05 3.55 1.4 2.75 1.75 2.33 1.75 1.9 1.75 1.9 1.53 1.9 1.3 6.15-6.5 10.4-14.3 14.63-22.03 18.85-29.75 18.75-29.8L18.75-29.8Q19.05-30.3 19.75-30.55L19.75-30.55 21-30.95ZM13.6-3.35L13.6-3.35Q13.4-3.25 13.22-3.25 13.05-3.25 13.05-3.45 13.05-3.65 13.2-3.8L13.2-3.8Q15.25-4.95 17.7-7.55L17.7-7.55Q15.45-8.25 15.45-9.53 15.45-10.8 17.15-12.38 18.85-13.95 20.35-13.95L20.35-13.95Q21.35-13.95 21.35-12.75L21.35-12.75Q21.35-10.9 19.5-8.8L19.5-8.8Q21.9-8.4 21.9-7.65L21.9-7.65Q21.9-6.65 21.02-6.13 20.15-5.6 19-4.25 17.85-2.9 17.85-1.55L17.85-1.55Q17.85-1.25 18.05-1 18.25-0.75 18.9-0.75 19.55-0.75 21.65-1.73 23.75-2.7 25.35-3.7L25.35-3.7 26.95-4.7Q27-4.6 27-4.3 27-4 26.55-3.8L26.55-3.8Q19.8 0.8 17.15 0.8L17.15 0.8Q15.85 0.8 15.85-0.5L15.85-0.5Q15.85-1.55 16.57-2.7 17.3-3.85 18.17-4.6 19.05-5.35 19.77-6.03 20.5-6.7 20.5-6.9 20.5-7.1 19.87-7.15 19.25-7.2 18.25-7.4L18.25-7.4Q15.5-4.45 13.6-3.35ZM16.7-10.3L16.7-10.3Q16.7-9.3 18.9-8.9L18.9-8.9Q20.2-10.5 20.2-11.68 20.2-12.85 19.45-12.85 18.7-12.85 17.7-11.98 16.7-11.1 16.7-10.3ZM34.45-15.25L34.45-15.25Q35.2-15.25 35.2-14.5 35.2-13.75 34.5-12.98 33.8-12.2 32.95-12.2L32.95-12.2Q32.25-12.2 32.25-13.18 32.25-14.15 33.05-14.7 33.84-15.25 34.45-15.25ZM29.75-8.65L29.75-8.65Q30-9.05 30.45-9.05 30.9-9.05 31.35-8.6L31.35-8.6Q31.35-8.4 30.7-7.7 30.05-7 28.5-4.58 26.95-2.15 26.95-1.35L26.95-1.35Q26.95-0.85 27.7-0.75L27.7-0.75Q28.7-0.75 30.8-1.73 32.9-2.7 34.5-3.7L34.5-3.7 36.09-4.7Q36.15-4.6 36.15-4.3 36.15-4 35.7-3.8L35.7-3.8Q28.95 0.8 26.3 0.8L26.3 0.8Q25 0.8 25-0.5 25-1.8 26.42-4.13 27.85-6.45 29.75-8.65ZM40.59-8L40.59-8Q43.89-9.85 46.22-9.85 48.54-9.85 48.54-7.9L48.54-7.9Q48.54-5.25 45.22-2.38 41.89 0.5 38.59 0.5L38.59 0.5Q38.29 0.5 37.84 0.2 37.39-0.1 37.39-0.8 37.39-1.5 38.52-2.45 39.64-3.4 39.87-3.4 40.09-3.4 40.32-3.33 40.54-3.25 40.77-3.05 40.99-2.85 40.99-2.7 40.99-2.55 40.74-2.3L40.74-2.3Q40.24-1.95 39.67-1.38 39.09-0.8 39.09-0.58 39.09-0.35 39.59-0.35 40.09-0.35 41.69-1.07 43.29-1.8 44.89-3.48 46.49-5.15 46.49-7.15L46.49-7.15Q46.49-8.4 45.04-8.4L45.04-8.4Q42.84-8.4 39.84-6.7L39.84-6.7Q35.54 0.5 34.44 2.5L34.44 2.5Q30.09 10.5 26.69 14.98 23.29 19.45 20.59 19.45L20.59 19.45Q19.69 19.45 19.69 18.35L19.69 18.35Q19.69 13.95 25.52 6.23 31.34-1.5 37.89-6.25L37.89-6.25Q42.94-14.6 43.99-16.7L43.99-16.7Q43.44-16.05 42.14-15.15L42.14-15.15 39.29-13.2Q38.99-13.1 38.74-13.1 38.49-13.1 38.44-13.35L38.44-13.35Q43.14-16.3 45.39-18.75L45.39-18.75Q45.94-19.35 45.99-19.5L45.99-19.5Q46.14-19.65 46.69-19.6 47.24-19.55 47.24-19.1L47.24-19.1Q47.24-18.9 46.52-17.73 45.79-16.55 40.59-8ZM32.99 2.1L32.99 2.1 37.04-4.8Q31.29-0.45 26.19 6.83 21.09 14.1 21.09 17.55L21.09 17.55Q21.09 18 21.39 18L21.39 18Q24.54 18 32.99 2.1ZM51.74-5.45L51.74-5.45Q49.34-3.25 48.69-3.25L48.69-3.25Q48.49-3.25 48.49-3.45 48.49-3.65 48.64-3.8L48.64-3.8Q49.84-4.45 51.44-5.9L51.44-5.9Q51.19-6.5 51.19-7.2L51.19-7.2Q51.19-8.9 52.94-10.45 54.69-12 55.89-12L55.89-12Q56.54-12 56.54-11.38 56.54-10.75 54.54-8.35L54.54-8.35Q54.34-8.1 54.09-7.85 53.84-7.6 53.57-7.28 53.29-6.95 53.14-6.8L53.14-6.8Q53.39-6.55 54.04-5.93 54.69-5.3 55.09-4.9L55.09-4.9Q56.19-3.8 56.19-2.15 56.19-0.5 54.14 0.73 52.09 1.95 49.87 1.95 47.64 1.95 47.64 0.63 47.64-0.7 49.69-1.8 51.74-2.9 53.99-3.3L53.99-3.3Q53.69-3.7 52.87-4.35 52.04-5 51.74-5.45ZM54.34-2.7Q52.64-2.5 51.14-1.78 49.64-1.05 49.64-0.08 49.64 0.9 51.02 0.9 52.39 0.9 53.47 0.25 54.54-0.4 54.54-1.2 54.54-2 54.34-2.7L54.34-2.7ZM52.79-7.2L52.79-7.2 54.09-8.6Q55.39-10.15 55.39-10.48 55.39-10.8 55.09-10.8L55.09-10.8Q54.24-10.8 53.34-9.98 52.44-9.15 52.44-8.38 52.44-7.6 52.79-7.2ZM71.29-9.35Q71.29-9.3 70.16-7.58 69.04-5.85 68.41-4.95 67.79-4.05 63.19 3.45L63.19 3.45Q63.59 3.4 64.49 3.4L64.49 3.4Q66.89 3.4 66.89 4.65L66.89 4.65Q66.89 5.35 65.99 6.3 65.09 7.25 64.59 7.25 64.09 7.25 64.09 6.9L64.09 6.9Q64.09 6.7 64.64 6.28 65.19 5.85 65.19 5.28 65.19 4.7 64.21 4.7 63.24 4.7 62.34 4.85L62.34 4.85Q57.79 12.3 54.49 16.5 51.19 20.7 48.84 20.7L48.84 20.7Q47.14 20.7 47.14 18.95L47.14 18.95Q47.14 15.95 51.66 10.63 56.19 5.3 61.49 3.8L61.49 3.8 66.29-4.5Q64.19-2.6 61.96-1.15 59.74 0.3 58.59 0.3 57.44 0.3 57.44-0.75L57.44-0.75Q57.44-2.35 62.69-9.6L62.69-9.6Q62.94-10 63.34-10L63.34-10Q64.49-9.65 64.49-9.5 64.49-9.35 64.19-8.9L64.19-8.9Q59.69-2.8 59.69-1.85L59.69-1.85Q59.69-1.25 60.36-1.25 61.04-1.25 63.16-2.85 65.29-4.45 66.79-6.1L66.79-6.1 69.59-9.5Q69.89-9.85 70.34-9.85L70.34-9.85Q71.29-9.7 71.29-9.35L71.29-9.35ZM51.99 11.68Q50.54 13.65 49.69 15.43 48.84 17.2 48.84 18.23 48.84 19.25 49.64 19.25L49.64 19.25Q52.14 19.25 60.59 5.25L60.59 5.25Q58.09 6.05 55.76 7.88 53.44 9.7 51.99 11.68Z" opacity="1" transform="matrix(1,0,0,1,0,0)" fill="#ffffff" class="wordmark-text-0" data-fill-palette-color="primary" id="text-0"></path></svg></g></svg></g><g transform="matrix(1,0,0,1,3.5,208.00715905396012)"><svg viewBox="0 0 237.56815881348314 34.615642806183324" height="34.615642806183324" width="237.56815881348314"><g transform="matrix(1,0,0,1,0,0)"><svg width="237.56815881348314" viewBox="-1.1500000953674316 -41.099998474121094 309.1199951171875 45.89999771118164" height="34.615642806183324" data-palette-color="#8d021f"><path d="M25.6 0.8Q24.35 0.8 22.93-0.48 21.5-1.75 20.3-3.95L20.3-3.95 14.95-13.65 10.8-13.65 10.65-6.2Q10.65-4.3 10.9-3.48 11.15-2.65 11.85-2.38 12.55-2.1 14.25-2.1L14.25-2.1 14.35-1.9 13.9 0.2Q13.3 0.15 11.5 0.1 9.7 0.05 7.75 0.05L7.75 0.05Q6 0.05 4.65 0.1 3.3 0.15 2.85 0.2L2.85 0.2 3.3-2.05Q4.9-2.25 5.7-2.6 6.5-2.95 6.8-3.73 7.1-4.5 7.1-6L7.1-6 7.15-27Q7.15-28.6 6.78-29.15 6.4-29.7 5.3-29.7L5.3-29.7Q4.8-29.7 4.3-29.65 3.8-29.6 3.6-29.6L3.6-29.6 3.5-29.8 3.85-32Q4.45-31.95 6.1-31.9 7.75-31.85 9.4-31.85L9.4-31.85Q11.1-31.85 12.98-31.93 14.85-32 15.55-32.05L15.55-32.05Q20.2-32.05 22.9-29.95 25.6-27.85 25.6-24.2L25.6-24.2Q25.6-21.2 23.68-18.7 21.75-16.2 18.25-14.6L18.25-14.6 23.75-5.9Q25.2-3.5 26.58-2.58 27.95-1.65 29.95-1.65L29.95-1.65 30.15-1.45 29.85 0.25 25.6 0.8ZM16.05-15.95Q16.05-15.8 17.55-16.6 19.05-17.4 20.25-19.05 21.45-20.7 21.45-23.3L21.45-23.3Q21.45-29.9 12.3-29.9L12.3-29.9Q11.8-29.9 11.63-29.68 11.45-29.45 11.4-28.75L11.4-28.75Q10.95-21.1 10.9-16.45L10.9-16.45 16.05-15.95ZM40.55 0.6Q37.7 0.6 35.5-0.8 33.3-2.2 32.07-4.73 30.85-7.25 30.85-10.5L30.85-10.5Q30.85-14 32.37-16.93 33.9-19.85 36.55-21.53 39.2-23.2 42.45-23.2L42.45-23.2Q45.25-23.2 47.47-21.8 49.7-20.4 50.92-17.88 52.15-15.35 52.15-12.1L52.15-12.1Q52.15-8.6 50.62-5.68 49.1-2.75 46.45-1.07 43.8 0.6 40.55 0.6L40.55 0.6ZM41.95-1.85Q44.75-1.85 46.4-4.13 48.05-6.4 48.05-10.3L48.05-10.3Q48.05-13.25 47.15-15.58 46.25-17.9 44.62-19.2 43-20.5 40.95-20.5L40.95-20.5Q38.15-20.5 36.5-18.2 34.85-15.9 34.85-11.95L34.85-11.95Q34.85-9 35.75-6.7 36.65-4.4 38.25-3.13 39.85-1.85 41.95-1.85L41.95-1.85ZM72.55 0.6Q68.5 0.6 68.1-3.45L68.1-3.45 67.9-3.5Q66.1-1.7 64.62-0.65 63.15 0.4 62.4 0.4L62.4 0.4Q59.6 0.4 57.8-1.35 56-3.1 56-5.8L56-5.8Q56-7.25 56.72-8.35 57.45-9.45 58.65-9.8L58.65-9.8 68.15-12.4 68.2-14.6Q68.2-17.1 67.05-18.5 65.9-19.9 63.8-19.9L63.8-19.9Q62.4-19.9 60.85-19.25 59.3-18.6 57.8-17.4L57.8-17.4 57.55-17.55 56.95-19.7Q59.3-21.05 61.67-22.13 64.05-23.2 65.1-23.2L65.1-23.2Q68.35-23.2 70.2-21.5 72.05-19.8 72.05-16.75L72.05-16.75Q72.05-15.65 71.7-12.25L71.7-12.25Q71.15-6.75 71.15-5.25L71.15-5.25Q71.15-4.15 71.7-3.55 72.25-2.95 73.2-2.95L73.2-2.95Q74-2.95 74.85-3.33 75.7-3.7 76.2-4.2L76.2-4.2 76.9-3.4Q76.15-2.15 74.97-0.98 73.8 0.2 72.55 0.6L72.55 0.6ZM63.25-3Q64.2-3 65.47-3.68 66.75-4.35 67.8-5.4L67.8-5.4 68.05-10.5 61.25-8.45Q59.8-8 59.8-6.35L59.8-6.35Q59.8-4.9 60.77-3.95 61.75-3 63.25-3L63.25-3ZM80.19-1.8Q81.69-1.95 82.19-2.78 82.69-3.6 82.69-5.95L82.69-5.95 82.69-16.95Q82.69-18.6 82.24-19.3 81.79-20 80.79-20L80.79-20Q80.39-20 80.12-19.95 79.84-19.9 79.74-19.85L79.74-19.85 79.49-20.2 79.64-21.75Q81.54-22.1 83.67-22.6 85.79-23.1 86.39-23.25L86.39-23.25 86.74-22.95Q86.64-22.5 86.44-20.88 86.24-19.25 86.29-17.8L86.29-17.8 86.49-17.65Q87.99-20 90.02-21.5 92.04-23 93.54-23L93.54-23Q94.24-23 94.62-22.93 94.99-22.85 95.09-22.8L95.09-22.8 95.24-22.6Q95.14-21.9 94.82-19.63 94.49-17.35 94.44-15.45L94.44-15.45 92.49-15.3Q92.49-17.35 92.22-18.03 91.94-18.7 91.14-18.7L91.14-18.7Q90.04-18.7 88.79-17.78 87.54-16.85 86.49-15.3L86.49-15.3Q86.44-13.85 86.29-10.5 86.14-7.15 86.09-5.1L86.09-5.1Q86.09-3.4 86.59-2.8 87.09-2.2 88.49-2.2L88.49-2.2Q89.14-2.2 89.79-2.25 90.44-2.3 90.69-2.3L90.69-2.3 90.74-2.1 90.29 0.1Q89.79 0.1 88.29 0.05 86.79 0 85.19 0L85.19 0Q83.34 0 81.84 0.08 80.34 0.15 79.94 0.2L79.94 0.2 80.19-1.8ZM109.09 0.6L109.39-1.7Q111.74-2.15 112.56-3.03 113.39-3.9 113.39-6L113.39-6 113.44-27Q113.44-28.6 113.06-29.15 112.69-29.7 111.59-29.7L111.59-29.7 109.49-29.6 109.39-29.8 109.74-32Q110.54-32 110.99-31.95L110.99-31.95 115.69-31.85Q117.94-31.85 121.44-32.3L121.44-32.3 121.24-30.05Q119.19-29.8 118.46-29.23 117.74-28.65 117.64-27.2L117.64-27.2Q117.34-21.35 117.14-14.98 116.94-8.6 116.94-5.6L116.94-5.6Q116.94-3.55 117.39-2.88 117.84-2.2 119.14-2.2L119.14-2.2Q119.99-2.2 121.79-2.35L121.79-2.35 121.89-2.15 121.44 0.15Q120.74 0.15 120.34 0.1L120.34 0.1Q116.84 0 114.89 0L114.89 0Q112.44 0 109.09 0.6L109.09 0.6ZM140.19-1.45Q141.69-1.85 142.34-2.63 142.99-3.4 142.99-4.7L142.99-4.7 143.19-14.6Q143.19-17.1 142.11-18.45 141.04-19.8 139.04-19.8L139.04-19.8Q137.44-19.8 135.79-18.98 134.14-18.15 132.89-17.2L132.89-17.2Q132.44-6.85 132.44-4.9L132.44-4.9Q132.44-3.35 132.84-2.73 133.24-2.1 134.24-2.1L134.24-2.1Q134.79-2.1 135.29-2.15 135.79-2.2 135.99-2.2L135.99-2.2 136.09-2 135.64 0.15Q135.19 0.1 133.89 0.05 132.59 0 131.09 0L131.09 0Q129.79 0 128.21 0.13 126.64 0.25 126.14 0.3L126.14 0.3 126.39-1.75Q127.84-2 128.44-2.65 129.04-3.3 129.04-4.7L129.04-4.7 129.04-16.9Q129.04-18.6 128.49-19.28 127.94-19.95 126.59-19.95L126.59-19.95 126.04-19.95 125.89-20.15 126.04-21.8Q128.19-22.15 130.31-22.63 132.44-23.1 133.04-23.25L133.04-23.25 133.34-22.85Q133.24-22.55 133.04-21.58 132.84-20.6 132.79-19.55L132.79-19.55 132.89-19.4Q138.59-23.2 140.24-23.2L140.24-23.2Q143.39-23.2 145.24-21.45 147.09-19.7 147.09-16.75L147.09-16.75Q147.09-16.25 146.79-12.15L146.79-12.15Q146.39-6.95 146.39-4.9L146.39-4.9Q146.39-3.45 146.79-2.78 147.19-2.1 148.14-2.1L148.14-2.1Q148.69-2.1 149.19-2.15 149.69-2.2 149.89-2.2L149.89-2.2 149.99-2 149.59 0.15Q149.14 0.1 147.89 0.05 146.64 0 145.14 0L145.14 0Q143.84 0 142.16 0.25 140.49 0.5 139.99 0.6L139.99 0.6 140.19-1.45ZM172.08 0.6Q169.98 0.6 168.23 0.23 166.48-0.15 165.36-0.6 164.23-1.05 164.23-1.1L164.23-1.1 163.98-1.6Q164.03-1.9 164.18-3.1 164.33-4.3 164.46-6.23 164.58-8.15 164.58-10.3L164.58-10.3 166.83-10.55Q166.83-6.8 167.33-5 167.83-3.2 169.18-2.53 170.53-1.85 173.33-1.85L173.33-1.85Q176.48-1.85 178.38-3.33 180.28-4.8 180.28-7.35L180.28-7.35Q180.28-8.85 179.26-10.05 178.23-11.25 176.83-12.1 175.43-12.95 172.68-14.4L172.68-14.4Q170.08-15.75 168.43-16.88 166.78-18 165.66-19.55 164.53-21.1 164.53-23.15L164.53-23.15Q164.53-25.75 166.06-27.88 167.58-30 170.21-31.23 172.83-32.45 176.03-32.45L176.03-32.45Q178.03-32.45 179.73-32.18 181.43-31.9 182.43-31.6 183.43-31.3 183.68-31.2L183.68-31.2 183.83-30.9Q183.78-30.6 183.58-29.5 183.38-28.4 183.13-26.45 182.88-24.5 182.73-22.45L182.73-22.45 180.78-22.25 180.48-22.5Q180.53-22.7 180.58-23.43 180.63-24.15 180.63-25.1L180.63-25.1Q180.63-27.75 179.33-28.75 178.03-29.75 174.68-29.75L174.68-29.75Q171.93-29.75 170.16-28.38 168.38-27 168.38-24.95L168.38-24.95Q168.38-22.95 170.11-21.48 171.83-20 175.18-18.25L175.18-18.25Q178.43-16.6 180.13-15.53 181.83-14.45 183.13-12.85 184.43-11.25 184.43-9.15L184.43-9.15Q184.43-6.35 182.86-4.13 181.28-1.9 178.48-0.65 175.68 0.6 172.08 0.6L172.08 0.6ZM189.33 0.6L189.53-1.45Q191.03-1.85 191.68-2.63 192.33-3.4 192.33-4.7L192.33-4.7 192.33-17.4Q192.33-20.1 190.48-20.1L190.48-20.1Q190.13-20.1 189.73-20.03 189.33-19.95 189.23-19.9L189.23-19.9 189.43-21.75Q191.53-22.05 193.75-22.55 195.98-23.05 196.63-23.2L196.63-23.2 196.88-22.6Q196.43-21.55 196.08-16.18 195.73-10.8 195.73-4.9L195.73-4.9Q195.73-3.45 196.13-2.78 196.53-2.1 197.48-2.1L197.48-2.1Q198.03-2.1 198.53-2.15 199.03-2.2 199.23-2.2L199.23-2.2 199.33-2 198.93 0.15Q198.48 0.1 197.23 0.05 195.98 0 194.48 0L194.48 0Q193.18 0 191.5 0.25 189.83 0.5 189.33 0.6L189.33 0.6ZM193.73-29.1Q192.58-29.1 191.93-29.85 191.28-30.6 191.28-31.65L191.28-31.65Q191.28-32.85 192.13-33.73 192.98-34.6 194.23-34.6L194.23-34.6Q195.38-34.6 196.03-33.85 196.68-33.1 196.68-32.05L196.68-32.05Q196.68-30.85 195.83-29.98 194.98-29.1 193.73-29.1L193.73-29.1ZM202.58 0.6L202.78-1.45Q204.18-1.85 204.75-2.45 205.33-3.05 205.45-3.9 205.58-4.75 205.58-6.75L205.58-6.75 205.58-31.3Q205.58-32.85 205.23-33.4 204.88-33.95 203.78-33.95L203.78-33.95Q203.53-33.95 202.63-33.85L202.63-33.85 202.48-33.95 202.68-35.65Q206.88-36.25 210.08-37.1L210.08-37.1 210.38-36.45Q209.83-35.6 209.4-25.75 208.98-15.9 208.98-4.9L208.98-4.9Q208.98-3.4 209.38-2.75 209.78-2.1 210.73-2.1L210.73-2.1 212.48-2.2 212.58-2 212.18 0.15Q208.88 0 207.73 0L207.73 0Q206.03 0 202.58 0.6L202.58 0.6ZM225.72 0.6Q222.62 0.6 220.22-0.78 217.82-2.15 216.52-4.67 215.22-7.2 215.22-10.45L215.22-10.45Q215.22-13.8 216.75-16.75 218.27-19.7 220.82-21.45 223.37-23.2 226.27-23.2L226.27-23.2Q229.92-23.2 231.82-21.35 233.72-19.5 233.72-15.95L233.72-15.95Q233.72-14.5 233.42-13.5L233.42-13.5 232.77-12.9 218.97-12.9Q218.92-8.05 220.9-5.43 222.87-2.8 226.42-2.8L226.42-2.8Q229.22-2.8 232.52-4.35L232.52-4.35 232.82-4.25 233.37-2.8Q231.57-1.5 229.4-0.45 227.22 0.6 225.72 0.6L225.72 0.6ZM219.17-14.75L228.22-15.2Q228.97-15.3 229.22-15.55 229.47-15.8 229.47-16.55L229.47-16.55Q229.47-18.55 228.4-19.6 227.32-20.65 225.32-20.65L225.32-20.65Q222.97-20.65 221.3-19.05 219.62-17.45 219.17-14.75L219.17-14.75ZM252.17-1.45Q253.67-1.85 254.32-2.63 254.97-3.4 254.97-4.7L254.97-4.7 255.17-14.6Q255.17-17.1 254.1-18.45 253.02-19.8 251.02-19.8L251.02-19.8Q249.42-19.8 247.77-18.98 246.12-18.15 244.87-17.2L244.87-17.2Q244.42-6.85 244.42-4.9L244.42-4.9Q244.42-3.35 244.82-2.73 245.22-2.1 246.22-2.1L246.22-2.1Q246.77-2.1 247.27-2.15 247.77-2.2 247.97-2.2L247.97-2.2 248.07-2 247.62 0.15Q247.17 0.1 245.87 0.05 244.57 0 243.07 0L243.07 0Q241.77 0 240.2 0.13 238.62 0.25 238.12 0.3L238.12 0.3 238.37-1.75Q239.82-2 240.42-2.65 241.02-3.3 241.02-4.7L241.02-4.7 241.02-16.9Q241.02-18.6 240.47-19.28 239.92-19.95 238.57-19.95L238.57-19.95 238.02-19.95 237.87-20.15 238.02-21.8Q240.17-22.15 242.3-22.63 244.42-23.1 245.02-23.25L245.02-23.25 245.32-22.85Q245.22-22.55 245.02-21.58 244.82-20.6 244.77-19.55L244.77-19.55 244.87-19.4Q250.57-23.2 252.22-23.2L252.22-23.2Q255.37-23.2 257.22-21.45 259.07-19.7 259.07-16.75L259.07-16.75Q259.07-16.25 258.77-12.15L258.77-12.15Q258.37-6.95 258.37-4.9L258.37-4.9Q258.37-3.45 258.77-2.78 259.17-2.1 260.12-2.1L260.12-2.1Q260.67-2.1 261.17-2.15 261.67-2.2 261.87-2.2L261.87-2.2 261.97-2 261.57 0.15Q261.12 0.1 259.87 0.05 258.62 0 257.12 0L257.12 0Q255.82 0 254.15 0.25 252.47 0.5 251.97 0.6L251.97 0.6 252.17-1.45ZM275.47 0.6Q270.72 0.6 267.87-2.4 265.02-5.4 265.02-10.45L265.02-10.45Q265.02-14 266.54-16.93 268.07-19.85 270.69-21.53 273.32-23.2 276.57-23.2L276.57-23.2Q277.97-23.2 279.27-23 280.57-22.8 281.39-22.58 282.22-22.35 282.42-22.25L282.42-22.25 282.57-21.9Q282.52-21.65 282.29-20.73 282.07-19.8 281.82-18.28 281.57-16.75 281.52-15L281.52-15 279.47-14.85 279.47-16.4Q279.47-18.25 278.34-19.38 277.22-20.5 275.37-20.5L275.37-20.5Q272.32-20.5 270.67-18.32 269.02-16.15 269.02-12.15L269.02-12.15Q269.02-7.8 270.84-5.28 272.67-2.75 275.82-2.75L275.82-2.75Q277.07-2.75 278.32-3.13 279.57-3.5 280.42-3.88 281.27-4.25 281.47-4.4L281.47-4.4 281.77-4.3 282.32-2.75Q281.97-2.5 280.79-1.7 279.62-0.9 278.09-0.15 276.57 0.6 275.47 0.6L275.47 0.6ZM295.97 0.6Q292.87 0.6 290.47-0.78 288.06-2.15 286.77-4.67 285.47-7.2 285.47-10.45L285.47-10.45Q285.47-13.8 286.99-16.75 288.52-19.7 291.06-21.45 293.62-23.2 296.52-23.2L296.52-23.2Q300.17-23.2 302.06-21.35 303.97-19.5 303.97-15.95L303.97-15.95Q303.97-14.5 303.67-13.5L303.67-13.5 303.02-12.9 289.22-12.9Q289.17-8.05 291.14-5.43 293.12-2.8 296.67-2.8L296.67-2.8Q299.47-2.8 302.77-4.35L302.77-4.35 303.06-4.25 303.62-2.8Q301.81-1.5 299.64-0.45 297.47 0.6 295.97 0.6L295.97 0.6ZM289.42-14.75L298.47-15.2Q299.22-15.3 299.47-15.55 299.72-15.8 299.72-16.55L299.72-16.55Q299.72-18.55 298.64-19.6 297.56-20.65 295.56-20.65L295.56-20.65Q293.22-20.65 291.54-19.05 289.87-17.45 289.42-14.75L289.42-14.75Z" opacity="1" transform="matrix(1,0,0,1,0,0)" fill="#ffffff" class="slogan-text-1" data-fill-palette-color="secondary" id="text-1"></path></svg></g></svg></g></svg></g></svg></g><g></g></svg></g></svg></g></svg></g><g mask="url(#6d77c7ba-cd0e-40cf-a3dd-ba9304506f82)"><g transform="matrix(3.3795595606037407, 0, 0, 3.3795595606037407, 81.43841524342949, 1)"><svg xmlns="http://www.w3.org/2000/svg" xmlns:xlink="http://www.w3.org/1999/xlink" version="1.1" x="0" y="0" viewBox="13.649261474609375 14.050716400146484 68.83831024169922 72.5538330078125" enable-background="new 0 0 96.314 100" xml:space="preserve" height="72.5538330078125" width="68.83831024169922" class="icon-none" data-fill-palette-color="accent" id="none"><g fill="#8d021f" data-fill-palette-color="accent"><path fill="#ffffff" d="M31.844 31.498c0.513-0.392 0.972-0.843 1.428-1.298 0.151-0.15-0.472-0.434-0.612-0.294-0.456 0.455-0.915 0.906-1.428 1.297C31.078 31.321 31.68 31.624 31.844 31.498z" data-fill-palette-color="accent"></path><path fill="#ffffff" d="M28.294 33.371c-0.76 0.507-1.521 1.012-2.336 1.427-0.125 0.064-0.091 0.169 0.033 0.195 0.165 0.036 0.341-0.007 0.488-0.082 0.814-0.416 1.576-0.921 2.336-1.427C29.12 33.28 28.442 33.272 28.294 33.371z" data-fill-palette-color="accent"></path><path fill="#ffffff" d="M37.507 37.868c0.437 0.3 0.386 0.081 0.1 0.251-1.09 0.646-2.181 1.292-3.271 1.938-0.134 0.079 0.452 0.347 0.637 0.238 1.168-0.692 2.336-1.384 3.504-2.077 0.069-0.041-0.021-0.131-0.055-0.154-2.769-1.903-5.537-3.807-8.306-5.71-0.145-0.099-0.827-0.135-0.528 0.07 2.155 1.481 4.312 2.963 6.467 4.445C36.538 37.202 37.022 37.535 37.507 37.868z" data-fill-palette-color="accent"></path><path fill="#ffffff" d="M36.995 43.323c0.249-0.109-0.36-0.399-0.529-0.325-0.922 0.404-1.803 0.895-2.725 1.298-0.25 0.109 0.359 0.399 0.528 0.325C35.191 44.217 36.072 43.727 36.995 43.323z" data-fill-palette-color="accent"></path><path fill="#ffffff" d="M61.896 67.35c-2.18-2.342-4.356-4.684-6.535-7.023-0.376-0.403-0.529-0.579-1.114-0.566-0.219 0.005-0.438 0.01-0.656 0.016-0.652-2.871-1.306-5.742-1.959-8.612-0.032-0.147-0.399-0.149-0.502-0.14-3.908 0.454-7.798 1.16-11.68 1.809-0.427-0.608-0.854-1.217-1.281-1.825 3.282-3.201 6.563-6.402 9.845-9.604 0.054-0.052-0.004-0.12-0.103-0.175-5.512-4.437-11.257-8.745-16.42-13.589 0.901-4.352 1.435-8.849 1.38-13.292 0.001-0.001 0.002-0.003 0.003-0.004-0.001 0-0.002 0-0.003-0.001 0-0.012 0.001-0.025 0.001-0.038-0.002-0.185-0.567-0.335-0.666-0.177-1.706 2.781-3.413 5.563-5.12 8.343 0.039-2.706 0.077-5.412 0.116-8.118 0.001-0.003 0.002-0.006 0.003-0.009-0.001 0-0.002-0.001-0.004-0.001 0-0.196-0.595-0.413-0.665-0.215-1.163 3.292-2.325 6.583-3.489 9.875-0.166-2.266-0.332-4.531-0.499-6.797 0-0.001 0.001-0.002 0.001-0.003 0 0 0 0-0.001 0-0.001-0.013-0.002-0.026-0.003-0.039-0.012-0.167-0.618-0.36-0.666-0.177-1.029 4.091-2.08 8.177-3.169 12.253-0.058 0.216-0.114 0.433-0.171 0.65-3.964-0.119-5.417 3.072-4.723 6.716 0.735 3.86 4.021 6.765 7.602 8.255-0.438 0.74-0.458 1.599 0.188 2.423 0.785 1.001 2.17 1.462 3.404 1.303 0.904-0.116 1.48-0.63 1.818-1.312 1.138 2.322 2.276 4.644 3.414 6.966-5.46 0.582-10.918 1.165-16.378 1.749-0.036 0.002-0.201 0.015-0.192 0.087 1.207 9.891 2.092 19.827 3.035 29.745 0.022 0.228 0.704 0.281 0.688 0.125-0.816-8.576-1.646-17.153-2.576-25.719-0.11-1.014-0.223-2.025-0.341-3.037-0.093-0.795-0.551-0.875 0.269-0.963 1.804-0.192 3.606-0.385 5.41-0.578 3.414-0.363 6.826-0.727 10.24-1.092 1.124 2.293 2.247 4.586 3.371 6.879-4.544 1.226-9.089 2.45-13.633 3.676-0.037 0.01-0.108 0.043-0.107 0.093 0.013 1.036 0.025 2.071 0.038 3.107-0.032 0.023-0.026 0.05 0.001 0.076 0.073 6.016 0.146 12.031 0.22 18.046 0.003 0.207 0.701 0.228 0.699 0.037-0.003-0.23-0.006-0.461-0.008-0.691 2.858-0.178 5.722-0.667 8.554-1.043 4.504-0.6 9.004-1.223 13.511-1.807 4.029-0.521 8.102-0.742 12.109-1.387 3.465-0.559 6.968-1.596 10.479-1.751 2.297-0.103 4.614 0.08 6.903-0.149 0.041-0.004 0.081-0.015 0.121-0.027 0.855 0.919 1.712 1.839 2.567 2.759 0.127 0.136 0.799 0.153 0.618-0.039C71.195 77.34 66.545 72.344 61.896 67.35zM20.769 68.485c5.568-1.553 11.622-0.842 17.244-2.144 1.335 1.521 2.67 3.044 4.005 4.566-6.82 2.476-14.207 2.359-21.168 4.27C20.823 72.947 20.796 70.716 20.769 68.485zM20.856 75.648c7.048-2.047 14.563-1.881 21.504-4.35 1.644 1.874 3.288 3.748 4.932 5.622-0.675 0.165-1.35 0.329-2.023 0.487-8.051 1.893-16.149 2.76-24.347 3.661C20.9 79.263 20.878 77.455 20.856 75.648zM48.499 70.816c2.919-0.48 5.881-0.685 8.824-0.987 1.781-0.184 3.842-0.153 5.587-0.688 1.49 1.602 2.981 3.204 4.473 4.806-6.544-0.451-13.023 1.234-19.385 2.802C48.165 74.771 48.332 72.794 48.499 70.816zM61.959 68.119c0.204 0.22 0.408 0.438 0.612 0.658-1.827 0.616-4.063 0.561-5.958 0.756-2.694 0.277-5.402 0.478-8.081 0.893 0.171-2.029 0.343-4.059 0.515-6.088 0.006 0 0.016 0.001 0.021 0 1.459-0.341 2.97-0.5 4.454-0.684 1.259-0.155 2.652-0.427 3.943-0.362C58.964 64.901 60.462 66.51 61.959 68.119zM54.452 60.054c0.21 0.224 0.417 0.447 0.625 0.671 0.693 0.745 1.387 1.49 2.08 2.234-1.206-0.053-2.479 0.183-3.656 0.318-1.472 0.172-2.963 0.342-4.418 0.641 0.097-1.141 0.193-2.282 0.289-3.424 0-0.002 0.002-0.005 0.001-0.007 0.009-0.104 0.018-0.207 0.026-0.31 1.589-0.038 3.181-0.075 4.769-0.111C54.294 60.063 54.383 60.059 54.452 60.054zM50.999 51.362c0.639 2.811 1.277 5.619 1.918 8.429-1.337 0.031-2.674 0.063-4.011 0.094-0.139 0.003-0.177 0.033-0.165 0.072-0.017 0.017-0.029 0.034-0.031 0.057-0.007 0.082-0.014 0.164-0.021 0.246-1.351-0.073-2.702-0.146-4.051-0.22-0.068-0.004-0.108 0-0.152 0.002-0.012-0.037-0.035-0.083-0.077-0.144-0.365-0.52-0.729-1.039-1.094-1.559-1.219-1.738-2.438-3.474-3.657-5.211C43.428 52.502 47.204 51.821 50.999 51.362zM14.671 37.262c-0.93-3.17-0.104-7.139 3.796-7.092-0.424 1.624-0.844 3.26-1.408 4.836-0.112 0.313 0.488 1.307 0.617 1.595 0.347 0.773 0.764 1.515 1.183 2.25 0.992 1.744 2.154 3.412 3.463 4.932 0.017 0.019 0.044 0.037 0.077 0.053-0.024 0.016-0.052 0.029-0.076 0.045-0.015 0.01-0.018 0.018-0.028 0.027-0.006 0.003-0.016 0.006-0.021 0.01-0.254 0.192-0.468 0.407-0.647 0.635C18.45 43.16 15.655 40.614 14.671 37.262zM26.446 46.593c-0.207 1.132-1.028 1.896-2.199 1.686-0.942-0.168-1.874-0.811-2.303-1.676-0.27-0.545-0.222-1.068 0-1.536 0.584 0.219 1.172 0.402 1.756 0.543 0.204 0.05 0.801-0.123 0.362-0.229-0.653-0.158-1.304-0.37-1.943-0.624 0.196-0.29 0.454-0.55 0.739-0.771 1.044-0.701 2.302-0.775 3.188 0.202 0.538 0.592 0.542 1.491 0.423 2.248-0.02 0.017-0.031 0.036-0.019 0.063 0.002 0.005 0.004 0.009 0.007 0.014C26.454 46.54 26.451 46.567 26.446 46.593zM27.101 46.525c0.075-0.329 0.113-0.674 0.114-1.023 0.006-1.44-0.926-2.124-2.048-2.276-0.871-2.224-1.896-4.377-3.117-6.432-0.232-0.392-1.241-1.41-0.922-1.718 0.357-0.343 0.722-0.679 1.086-1.013 2.536-2.322 5.556-5.195 8.931-6.222 5.098 4.759 10.747 9.01 16.178 13.378-3.284 3.204-6.567 6.406-9.85 9.609-0.019 0.019-0.022 0.039-0.016 0.061-0.014 0.015-0.019 0.031-0.005 0.051 1.877 2.678 3.756 5.354 5.634 8.031 0.381 0.543 0.646 1.303 1.368 1.342 1.404 0.075 2.808 0.151 4.211 0.227-0.44 5.209-0.881 10.419-1.322 15.627-4.289-4.89-8.579-9.781-12.868-14.672-0.01-0.012-0.025-0.016-0.037-0.025-2.436-4.972-4.872-9.943-7.309-14.915C27.123 46.543 27.11 46.535 27.101 46.525zM20.876 65.266c1.445-0.389 2.89-0.777 4.334-1.168 2.922-0.788 5.842-1.574 8.763-2.362 1.26 1.436 2.519 2.872 3.779 4.309-5.526 1.33-11.475 0.66-16.988 2.07-0.005-0.444-0.011-0.889-0.016-1.333-0.006-0.426-0.011-0.852-0.016-1.275C20.728 65.16 20.55 65.354 20.876 65.266zM65.772 79.497c-3.127 0.103-6.273 0.993-9.343 1.544-4.226 0.758-8.522 0.986-12.778 1.529-4.479 0.572-8.95 1.193-13.424 1.791-3.062 0.41-6.163 0.952-9.251 1.133-0.017-1.352-0.033-2.702-0.05-4.054 7.701-0.848 15.379-1.555 22.947-3.282 7.777-1.775 15.774-4.444 23.814-3.883 1.578 1.696 3.156 3.393 4.734 5.088C70.219 79.559 67.982 79.425 65.772 79.497z" data-fill-palette-color="accent"></path><path fill="#ffffff" d="M82.203 41.722c0.156-0.944 0.271-1.893 0.284-2.836 0.018-1.365-0.389-1.699-1.503-2.318-4.706-2.616-9.596-4.963-14.484-7.212-1.244-0.572-2.833-1.586-4.24-1.683-1.178-0.081-1.86 1.934-2.252 2.743-1.525 3.158-2.672 6.566-3.491 9.972-0.401 1.667-1.335 4.451 0.519 5.478 5.343 2.962 11.07 5.649 16.717 7.981 0.007 0.003 0.021 0.004 0.029 0.007 0.015 0.006 0.021 0.012 0.039 0.019 4.191 1.504 6.392-4.94 7.319-7.824 0.447-1.393 0.818-2.851 1.063-4.321C82.202 41.725 82.203 41.724 82.203 41.722 82.203 41.722 82.203 41.722 82.203 41.722zM58.387 36.353c1.274-1.452 3.153 0.131 4.146 1.075 0.1 0.095 0.533 0.24 0.635 0.08 0.77-1.207 1.901-0.55 2.19 0.53 0.042 0.155 0.374 0.173 0.491 0.173 0.087 0 0.181 0.009 0.263-0.027 1.438-0.64 2.792-0.375 3.61 0.962 0.389 0.633 0.637 0.583-0.128 0.586-1.437 0.007-2.872 0.009-4.309 0.013-2.65 0.007-5.3 0.012-7.949 0.018 0.173-0.579 0.349-1.13 0.493-1.627 0.174-0.595 0.361-1.188 0.554-1.78C58.385 36.354 58.386 36.354 58.387 36.353zM74.204 53.659c-4.442-1.84-8.771-4.051-13.091-6.155-1.058-0.515-4.021-1.359-4.357-2.665-0.366-1.43 0.034-3.194 0.499-4.788 0.028 0.006 0.057 0.011 0.079 0.011 4.395-0.008 8.798 0.075 13.19-0.035 0.063-0.001 0.225-0.026 0.187-0.127-0.423-1.107-1.09-1.915-2.216-2.327-0.991-0.363-1.693 0.155-2.543 0.3-0.523-1.427-2.17-1.994-3.195-0.836-1.108-0.959-2.741-1.992-4.088-1.521 0.64-1.867 1.375-3.707 2.248-5.467 0.34-0.685 0.708-1.412 1.242-1.968 0.257-0.266 1.365 0.346 1.854 0.553 5.052 2.154 9.979 4.675 14.841 7.225 0.793 0.416 2.616 0.976 2.854 1.958 0.225 0.928 0.147 1.979-0.021 3.009-0.844-0.934-2.403-1.257-3.561-0.874-1.479 0.492-2.677 2.311-3.231 3.839-2.219-2.275-5.017-0.146-7.163 1.607-0.188 0.154 0.239 0.198 0.311 0.199 4.138 0.02 8.267 0.339 12.404 0.379-0.433 1.371-0.952 2.714-1.596 3.994C78.054 51.554 76.371 54.425 74.204 53.659zM80.531 45.701c-3.237-0.028-6.467-0.23-9.703-0.337-0.48-0.016-0.964-0.028-1.445-0.034-1.171-0.016-0.583-0.191-0.007-0.654 1.673-1.341 3.763-2.39 5.332-0.207 0.109 0.153 0.634 0.137 0.687-0.064 0.217-0.847 0.653-1.595 1.129-2.319 0.315-0.482 0.706-0.91 1.118-1.311 1.177-1.142 3.438-0.536 3.861 0.974 0.002 0.005 0.007 0.008 0.009 0.013-0.098 0.469-0.202 0.924-0.294 1.348C81.029 43.981 80.792 44.845 80.531 45.701z" data-fill-palette-color="accent"></path></g></svg></g></g></svg></g><defs></defs></svg><rect width="395.52" height="247.2" fill="none" stroke="none" visibility="hidden"></rect></g></svg></g></svg>